<svg width="200" height="48" viewBox="0 0 200 48" fill="none" xmlns="http://www.w3.org/2000/svg">
<path d="M22.528 29.376C22.912 30.24 23.104 31.216 23.104 32.304C23.104 33.392 22.72 34.336 21.952 35.136C21.216 35.904 20.304 36.288 19.216 36.288C15.824 36.288 10.512 36.096 3.28 35.712C2.704 35.68 2.192 35.504 1.744 35.184C1.296 34.832 1.072 34.4 1.072 33.888C1.072 32.192 1.2 29.328 1.456 25.296C1.744 21.264 1.888 17.504 1.888 14.016C1.888 10.496 1.552 6.464 0.88 1.92C3.248 2.112 6.432 2.208 10.432 2.208C14.432 2.208 18.256 1.92 21.904 1.344C22.288 2.048 22.48 2.896 22.48 3.888C22.48 4.848 22.096 5.712 21.328 6.48C20.592 7.216 19.664 7.584 18.544 7.584C17.456 7.584 15.696 7.424 13.264 7.104C10.864 6.784 9.088 6.624 7.936 6.624C7.68 9.856 7.536 12.896 7.504 15.744C9.52 15.936 11.68 16.032 13.984 16.032C16.32 16.032 18.32 15.696 19.984 15.024C20.368 15.728 20.56 16.576 20.56 17.568C20.56 18.528 20.176 19.408 19.408 20.208C18.672 20.976 17.776 21.36 16.72 21.36C15.696 21.36 14.16 21.168 12.112 20.784C10.064 20.368 8.512 20.16 7.456 20.16C7.456 25.216 7.568 28.928 7.792 31.296C9.328 31.424 10.528 31.488 11.392 31.488C15.616 31.488 19.328 30.784 22.528 29.376ZM48.9633 13.392C48.0993 17.072 47.6673 20.768 47.6673 24.48C47.6673 28.16 48.0833 31.808 48.9153 35.424C47.7633 35.808 46.5793 36 45.3633 36C44.1473 36 43.2993 35.648 42.8193 34.944C42.3393 34.208 42.0993 33.168 42.0993 31.824C42.0993 30.448 42.3073 28.576 42.7233 26.208C40.4513 31.072 38.2593 34.144 36.1473 35.424C35.1873 36 34.1953 36.288 33.1713 36.288C30.7393 36.288 28.8513 35.392 27.5073 33.6C26.1633 31.776 25.4913 29.52 25.4913 26.832C25.4913 22.736 26.6273 19.152 28.8993 16.08C31.1713 12.976 34.1153 11.424 37.7313 11.424C41.3793 11.424 45.1233 12.08 48.9633 13.392ZM42.6753 16.272C40.9793 15.76 39.5393 15.504 38.3553 15.504C35.9553 15.504 34.1633 16.032 32.9793 17.088C31.8913 19.776 31.3473 22.512 31.3473 25.296C31.3473 26.768 31.5713 28.256 32.0193 29.76C32.4993 31.264 33.2193 32.016 34.1793 32.016C35.2993 32.016 36.7393 30.368 38.4993 27.072C40.2593 23.776 41.6513 20.176 42.6753 16.272ZM57.4555 27.264C57.3595 27.712 57.3115 28.08 57.3115 28.368C57.3115 29.68 57.6955 30.688 58.4635 31.392C59.2635 32.096 60.3195 32.448 61.6315 32.448C62.9755 32.448 64.0795 32.208 64.9435 31.728C65.8395 31.216 66.2875 30.464 66.2875 29.472C66.2875 28.48 65.8075 27.696 64.8475 27.12C63.9195 26.512 62.7835 26.032 61.4395 25.68C60.1275 25.328 58.7995 24.944 57.4555 24.528C56.1115 24.08 54.9595 23.392 53.9995 22.464C53.0715 21.536 52.6075 20.368 52.6075 18.96C52.6075 16.752 53.7755 14.896 56.1115 13.392C58.4475 11.888 60.8955 11.136 63.4555 11.136C66.2715 11.136 68.4155 11.712 69.8875 12.864C70.7515 13.536 71.1835 14.432 71.1835 15.552C71.1835 16.64 70.7515 17.536 69.8875 18.24C69.0555 18.912 68.0315 19.248 66.8155 19.248C66.5595 19.248 66.2395 19.216 65.8555 19.152C65.9515 18.736 65.9995 18.368 65.9995 18.048C65.9995 17.12 65.6475 16.416 64.9435 15.936C64.2395 15.456 63.2795 15.216 62.0635 15.216C60.8795 15.216 59.7915 15.456 58.7995 15.936C58.4155 16.448 58.2235 17.104 58.2235 17.904C58.2235 18.704 58.6875 19.36 59.6155 19.872C60.5435 20.352 61.6635 20.784 62.9755 21.168C64.3195 21.52 65.6635 21.936 67.0075 22.416C68.3515 22.864 69.4875 23.584 70.4155 24.576C71.3435 25.536 71.8075 26.752 71.8075 28.224C71.8075 30.624 70.6075 32.624 68.2075 34.224C65.8395 35.792 63.3915 36.576 60.8635 36.576C58.3355 36.576 56.2395 36.128 54.5755 35.232C52.9435 34.304 52.1275 32.912 52.1275 31.056C52.1275 29.904 52.5435 28.976 53.3755 28.272C54.2395 27.536 55.2795 27.168 56.4955 27.168C56.7515 27.168 57.0715 27.2 57.4555 27.264ZM75.5553 28.032L76.0353 21.12C76.0353 18.016 75.5873 15.072 74.6913 12.288C75.5873 11.904 76.6913 11.712 78.0033 11.712C80.5633 11.712 81.8433 13.136 81.8433 15.984C81.8433 17.264 81.6673 19.072 81.3153 21.408C80.9633 23.744 80.7873 25.36 80.7873 26.256C80.7873 27.12 80.8033 27.76 80.8353 28.176C80.8673 28.56 80.9473 29.024 81.0753 29.568C81.2673 30.656 81.8913 31.2 82.9473 31.2C84.0353 31.2 85.1873 30.352 86.4033 28.656C87.6513 26.928 88.6433 25.024 89.3793 22.944C90.1473 20.864 90.5313 19.216 90.5313 18C90.3713 15.472 90.0993 13.568 89.7153 12.288C90.7393 11.904 91.7793 11.712 92.8353 11.712C93.9233 11.712 94.8193 12.048 95.5233 12.72C96.2593 13.392 96.6273 14.288 96.6273 15.408C96.6273 32.88 93.4273 43.36 87.0273 46.848C85.5873 47.616 83.9553 48 82.1313 48C80.3073 48 78.7073 47.52 77.3313 46.56C75.9873 45.6 75.3153 44.256 75.3153 42.528C75.3153 41.376 75.7473 40.4 76.6113 39.6C77.4753 38.832 78.4993 38.448 79.6833 38.448C79.9393 38.448 80.2593 38.48 80.6433 38.544C80.5473 38.96 80.4993 39.328 80.4993 39.648C80.4993 42.464 81.4753 43.872 83.4273 43.872C84.6113 43.872 85.6832 43.232 86.6432 41.952C87.6033 40.672 88.3713 39.104 88.9473 37.248C90.0673 33.472 90.6273 30.048 90.6273 26.976C89.6673 29.568 88.3553 31.664 86.6913 33.264C85.0593 34.832 83.2833 35.616 81.3633 35.616C77.4913 35.616 75.5553 33.088 75.5553 28.032ZM136.408 4.608L136.168 12.528C136.168 16.88 136.296 20.784 136.552 24.24C136.808 27.664 137.384 31.392 138.28 35.424C137.576 36 136.456 36.288 134.92 36.288C131.944 36.288 130.456 34.992 130.456 32.4C130.456 30.256 130.552 26.976 130.744 22.56C130.968 18.144 131.08 14.688 131.08 12.192C129.352 14.688 127.528 17.776 125.608 21.456C123.72 25.104 122.776 27.344 122.776 28.176C122.776 29.008 122.856 29.648 123.016 30.096C122.312 30.544 121.368 30.768 120.184 30.768C119.032 30.768 118.056 30.448 117.256 29.808C116.488 29.168 115.832 28.288 115.288 27.168C114.776 26.048 113.848 23.856 112.504 20.592C111.192 17.296 109.992 14.464 108.904 12.096C108.072 17.248 107.656 21.808 107.656 25.776C107.656 29.744 107.784 32.96 108.04 35.424C107.016 35.808 105.992 36 104.968 36C102.92 36 101.896 34.976 101.896 32.928C101.896 31.36 102.248 28.24 102.952 23.568C103.688 18.864 104.056 14.896 104.056 11.664C104.056 8.432 103.88 5.408 103.528 2.592C105.256 2.144 106.6 1.92 107.56 1.92C109.32 1.92 110.504 2.544 111.112 3.792C112.072 5.808 113.48 9.024 115.336 13.44C117.224 17.824 118.76 21.2 119.944 23.568C120.264 22.896 121 21.456 122.152 19.248C123.336 17.008 124.312 15.104 125.08 13.536C125.88 11.936 126.68 10.048 127.48 7.872C128.312 5.664 128.84 3.744 129.064 2.112C130.216 1.792 131.336 1.632 132.424 1.632C133.544 1.632 134.488 1.872 135.256 2.352C136.024 2.832 136.408 3.584 136.408 4.608ZM147.222 25.104C147.222 27.408 147.59 29.232 148.326 30.576C149.062 31.888 150.294 32.544 152.022 32.544C153.75 32.544 155.094 31.968 156.054 30.816C157.046 29.632 157.542 28.208 157.542 26.544C158.63 26.544 159.574 26.816 160.374 27.36C161.174 27.904 161.574 28.656 161.574 29.616C161.574 31.6 160.518 33.264 158.406 34.608C156.294 35.92 154.07 36.576 151.734 36.576C148.086 36.576 145.446 35.6 143.814 33.648C142.182 31.664 141.366 28.736 141.366 24.864C141.366 20.992 142.454 17.744 144.63 15.12C146.838 12.464 149.766 11.136 153.414 11.136C155.91 11.136 157.91 11.712 159.414 12.864C160.95 13.984 161.718 15.744 161.718 18.144C161.718 20.512 160.63 22.304 158.454 23.52C156.31 24.704 153.686 25.296 150.582 25.296C149.494 25.296 148.374 25.232 147.222 25.104ZM147.27 21.312C148.23 21.504 149.238 21.6 150.294 21.6C152.598 21.6 154.534 21.168 156.102 20.304C156.294 19.536 156.39 18.928 156.39 18.48C156.39 17.36 155.99 16.512 155.19 15.936C154.39 15.36 153.286 15.072 151.878 15.072C150.502 15.072 149.254 15.52 148.134 16.416C147.558 18.08 147.27 19.712 147.27 21.312ZM188.182 13.392C187.318 17.072 186.886 20.768 186.886 24.48C186.886 28.16 187.302 31.808 188.134 35.424C186.982 35.808 185.798 36 184.582 36C183.366 36 182.518 35.648 182.038 34.944C181.558 34.208 181.318 33.168 181.318 31.824C181.318 30.448 181.526 28.576 181.942 26.208C179.67 31.072 177.478 34.144 175.366 35.424C174.406 36 173.414 36.288 172.39 36.288C169.958 36.288 168.07 35.392 166.726 33.6C165.382 31.776 164.71 29.52 164.71 26.832C164.71 22.736 165.846 19.152 168.118 16.08C170.39 12.976 173.334 11.424 176.95 11.424C180.598 11.424 184.342 12.08 188.182 13.392ZM181.894 16.272C180.198 15.76 178.758 15.504 177.574 15.504C175.174 15.504 173.382 16.032 172.198 17.088C171.11 19.776 170.566 22.512 170.566 25.296C170.566 26.768 170.79 28.256 171.238 29.76C171.718 31.264 172.438 32.016 173.398 32.016C174.518 32.016 175.958 30.368 177.718 27.072C179.478 23.776 180.87 20.176 181.894 16.272ZM192.93 0.575998C193.954 0.191998 195.01 -2.86102e-06 196.098 -2.86102e-06C197.186 -2.86102e-06 198.082 0.367997 198.786 1.104C199.522 1.808 199.89 2.784 199.89 4.032C199.89 5.248 199.714 7.712 199.362 11.424C199.042 15.104 198.882 18 198.882 20.112C198.882 25.328 199.25 30.432 199.986 35.424C198.962 35.808 197.874 36 196.722 36C194.258 36 193.026 34.8 193.026 32.4C193.026 31.248 193.202 28.992 193.554 25.632C193.906 22.24 194.082 19.52 194.082 17.472C194.082 10.656 193.698 5.024 192.93 0.575998Z" fill="black"/>
</svg>
