<svg width="24" height="33" viewBox="0 0 24 33" fill="none" xmlns="http://www.w3.org/2000/svg">
<path d="M20.4581 11.7804L14.7443 10.6386L12.1901 3.51857C12.1203 3.32363 12.0055 3.16582 11.8637 3.0699C11.5082 2.82854 11.0761 3.02967 10.8983 3.51857L8.34409 10.6386L2.63029 11.7804C2.47276 11.8113 2.32873 11.9134 2.21846 12.0681C2.08515 12.2565 2.01169 12.51 2.01422 12.7728C2.01676 13.0357 2.09507 13.2864 2.23197 13.4698L6.36598 19.0117L5.3893 26.8372C5.3664 27.0193 5.38105 27.2065 5.43159 27.3777C5.48213 27.5488 5.56654 27.6971 5.67526 27.8057C5.78397 27.9142 5.91263 27.9787 6.04664 27.9919C6.18066 28.005 6.31468 27.9663 6.43349 27.88L11.5442 24.1854L16.6549 27.88C16.7944 27.9821 16.9564 28.0162 17.1117 27.979C17.5033 27.8862 17.7666 27.3756 17.6991 26.8372L16.7224 19.0117L20.8564 13.4698C20.9689 13.3182 21.0432 13.1202 21.0657 12.9036C21.1265 12.3621 20.8519 11.8608 20.4581 11.7804Z" fill="#FFCB45"/>
</svg>
