<svg width="24" height="33" viewBox="0 0 24 33" fill="none" xmlns="http://www.w3.org/2000/svg">
<path d="M21.2281 11.7804L15.5143 10.6386L12.9601 3.51857C12.8903 3.32363 12.7755 3.16582 12.6338 3.0699C12.2782 2.82854 11.8461 3.02967 11.6683 3.51857L9.11411 10.6386L3.40031 11.7804C3.24278 11.8113 3.09875 11.9134 2.98848 12.0681C2.85517 12.2565 2.78171 12.51 2.78424 12.7728C2.78677 13.0357 2.86509 13.2864 3.00198 13.4698L7.136 19.0117L6.15932 26.8372C6.13642 27.0193 6.15107 27.2065 6.20161 27.3777C6.25215 27.5488 6.33656 27.6971 6.44528 27.8057C6.55399 27.9142 6.68265 27.9787 6.81666 27.9919C6.95068 28.005 7.0847 27.9663 7.20351 27.88L12.3142 24.1854L17.4249 27.88C17.5644 27.9821 17.7265 28.0162 17.8817 27.979C18.2733 27.8862 18.5366 27.3756 18.4691 26.8372L17.4924 19.0117L21.6264 13.4698C21.7389 13.3182 21.8132 13.1202 21.8357 12.9036C21.8965 12.3621 21.6219 11.8608 21.2281 11.7804Z" fill="#FFCB45"/>
</svg>
