<svg width="24" height="33" viewBox="0 0 24 33" fill="none" xmlns="http://www.w3.org/2000/svg">
<path d="M20.5733 11.7804L14.8595 10.6386L12.3053 3.51857C12.2355 3.32363 12.1208 3.16582 11.979 3.0699C11.6234 2.82854 11.1913 3.02967 11.0136 3.51857L8.45933 10.6386L2.74552 11.7804C2.58799 11.8113 2.44397 11.9134 2.3337 12.0681C2.20039 12.2565 2.12693 12.51 2.12946 12.7728C2.13199 13.0357 2.21031 13.2864 2.3472 13.4698L6.48121 19.0117L5.50453 26.8372C5.48163 27.0193 5.49628 27.2065 5.54682 27.3777C5.59737 27.5488 5.68178 27.6971 5.79049 27.8057C5.8992 27.9142 6.02786 27.9787 6.16188 27.9919C6.2959 28.005 6.42991 27.9663 6.54873 27.88L11.6594 24.1854L16.7701 27.88C16.9096 27.9821 17.0717 28.0162 17.227 27.979C17.6185 27.8862 17.8818 27.3756 17.8143 26.8372L16.8376 19.0117L20.9716 13.4698C21.0842 13.3182 21.1584 13.1202 21.1809 12.9036C21.2417 12.3621 20.9671 11.8608 20.5733 11.7804Z" fill="#FFCB45"/>
</svg>
