<svg width="24" height="33" viewBox="0 0 24 33" fill="none" xmlns="http://www.w3.org/2000/svg">
<path d="M20.4583 11.7804L14.7445 10.6386L12.1903 3.51857C12.1205 3.32363 12.0058 3.16582 11.864 3.0699C11.5084 2.82854 11.0763 3.02967 10.8986 3.51857L8.34434 10.6386L2.63053 11.7804C2.473 11.8113 2.32898 11.9134 2.21871 12.0681C2.0854 12.2565 2.01194 12.51 2.01447 12.7728C2.017 13.0357 2.09532 13.2864 2.23221 13.4698L6.36622 19.0117L5.38954 26.8372C5.36664 27.0193 5.38129 27.2065 5.43183 27.3777C5.48238 27.5488 5.56679 27.6971 5.6755 27.8057C5.78421 27.9142 5.91287 27.9787 6.04689 27.9919C6.18091 28.005 6.31492 27.9663 6.43374 27.88L11.5444 24.1854L16.6551 27.88C16.7947 27.9821 16.9567 28.0162 17.112 27.979C17.5035 27.8862 17.7668 27.3756 17.6993 26.8372L16.7226 19.0117L20.8567 13.4698C20.9692 13.3182 21.0434 13.1202 21.0659 12.9036C21.1267 12.3621 20.8522 11.8608 20.4583 11.7804Z" fill="#FFCB45"/>
</svg>
