<svg width="24" height="33" viewBox="0 0 24 33" fill="none" xmlns="http://www.w3.org/2000/svg">
<path d="M21.3433 11.7804L15.6295 10.6386L13.0753 3.51857C13.0055 3.32363 12.8908 3.16582 12.749 3.0699C12.3934 2.82854 11.9614 3.02967 11.7836 3.51857L9.22935 10.6386L3.51554 11.7804C3.35801 11.8113 3.21399 11.9134 3.10372 12.0681C2.97041 12.2565 2.89695 12.51 2.89948 12.7728C2.90201 13.0357 2.98033 13.2864 3.11722 13.4698L7.25123 19.0117L6.27455 26.8372C6.25165 27.0193 6.2663 27.2065 6.31684 27.3777C6.36739 27.5488 6.4518 27.6971 6.56051 27.8057C6.66922 27.9142 6.79788 27.9787 6.9319 27.9919C7.06592 28.005 7.19993 27.9663 7.31875 27.88L12.4294 24.1854L17.5401 27.88C17.6797 27.9821 17.8417 28.0162 17.997 27.979C18.3885 27.8862 18.6518 27.3756 18.5843 26.8372L17.6076 19.0117L21.7417 13.4698C21.8542 13.3182 21.9284 13.1202 21.951 12.9036C22.0117 12.3621 21.7372 11.8608 21.3433 11.7804Z" fill="#FFCB45"/>
</svg>
