<svg width="24" height="33" viewBox="0 0 24 33" fill="none" xmlns="http://www.w3.org/2000/svg">
<path d="M5.17902 30.0444C5.13277 30.2498 5.13194 30.4633 5.17659 30.669C5.22124 30.8747 5.31022 31.0673 5.43685 31.2322C5.56348 31.3972 5.72448 31.5303 5.90779 31.6216C6.09109 31.7129 6.29194 31.7599 6.49528 31.7593C6.76195 31.7593 7.02267 31.6775 7.24454 31.5241L14.5953 26.4426L21.9461 31.5241C22.1761 31.6824 22.4473 31.7639 22.7232 31.7576C22.9992 31.7514 23.2667 31.6576 23.4897 31.489C23.7128 31.3204 23.8806 31.085 23.9708 30.8145C24.061 30.5439 24.0691 30.2513 23.9941 29.9758L21.5249 21.0167L27.6486 15.3025C27.8447 15.1194 27.9847 14.8807 28.0514 14.6159C28.1181 14.3511 28.1085 14.0718 28.0237 13.8127C27.939 13.5535 27.7828 13.3258 27.5746 13.1577C27.3663 12.9895 27.1151 12.8884 26.852 12.8667L19.1557 12.2312L15.8252 4.58655C15.7191 4.34033 15.5466 4.13121 15.3284 3.98441C15.1103 3.83762 14.8558 3.75943 14.5958 3.75928C14.3357 3.75913 14.0812 3.83703 13.8628 3.98358C13.6445 4.13012 13.4718 4.33905 13.3655 4.58515L10.035 12.2312L2.33861 12.8653C2.08002 12.8866 1.83281 12.9846 1.62655 13.1477C1.42029 13.3108 1.26372 13.5321 1.17557 13.7851C1.08741 14.0381 1.07141 14.312 1.12947 14.5742C1.18753 14.8363 1.31719 15.0756 1.50295 15.2633L7.19188 21.0125L5.17902 30.0444ZM14.5953 8.56216L17.352 14.8909L18.1458 14.9567H18.1472L23.5094 15.3977L19.0936 19.5189L19.0922 19.5217L18.4672 20.104L18.698 20.9397V20.9439L20.3896 27.0823L14.5953 23.0773V8.56216Z" fill="#FFCB45"/>
</svg>
