<svg width="67" height="69" viewBox="0 0 67 69" fill="none" xmlns="http://www.w3.org/2000/svg">
<g clip-path="url(#clip0_108_160)">
<path d="M50.7919 24.6385C43.7986 19.8444 35.1629 22.0816 30.5007 27.5682C25.8385 22.0816 17.2028 19.8178 10.2095 24.6385C6.50096 27.1953 4.16985 31.5099 4.01091 36.0643C3.64006 46.3981 12.7526 54.6811 26.6597 67.3853L26.9246 67.625C28.9378 69.4627 32.0371 69.4627 34.0504 67.5984L34.3417 67.3321C48.2489 54.6545 57.3349 46.3714 56.9905 36.0376C56.8316 31.5099 54.5005 27.1953 50.7919 24.6385ZM30.7656 63.4169L30.5007 63.6833L30.2358 63.4169C17.6267 51.9379 9.30888 44.3473 9.30888 36.6502C9.30888 31.3235 13.2823 27.3285 18.5803 27.3285C22.6597 27.3285 26.6332 29.9652 28.0372 33.614H32.9908C34.3682 29.9652 38.3417 27.3285 42.4211 27.3285C47.7191 27.3285 51.6926 31.3235 51.6926 36.6502C51.6926 44.3473 43.3748 51.9379 30.7656 63.4169Z" fill="white"/>
</g>
<defs>
<clipPath id="clip0_108_160">
<rect width="67" height="69" fill="white"/>
</clipPath>
</defs>
</svg>
