<svg width="90" height="90" viewBox="0 0 90 90" fill="none" xmlns="http://www.w3.org/2000/svg">
<g clip-path="url(#clip0_108_146)">
<path d="M45 7.5C24.3 7.5 7.5 24.3 7.5 45C7.5 65.7 24.3 82.5 45 82.5C65.7 82.5 82.5 65.7 82.5 45C82.5 24.3 65.7 7.5 45 7.5ZM48.75 71.25H41.25V63.75H48.75V71.25ZM56.5125 42.1875L53.1375 45.6375C50.4375 48.375 48.75 50.625 48.75 56.25H41.25V54.375C41.25 50.25 42.9375 46.5 45.6375 43.7625L50.2875 39.0375C51.675 37.6875 52.5 35.8125 52.5 33.75C52.5 29.625 49.125 26.25 45 26.25C40.875 26.25 37.5 29.625 37.5 33.75H30C30 25.4625 36.7125 18.75 45 18.75C53.2875 18.75 60 25.4625 60 33.75C60 37.05 58.65 40.05 56.5125 42.1875Z" fill="#A1D572"/>
</g>
<defs>
<clipPath id="clip0_108_146">
<rect width="90" height="90" fill="white"/>
</clipPath>
</defs>
</svg>
