<svg width="50" height="49" viewBox="0 0 50 49" fill="none" xmlns="http://www.w3.org/2000/svg">
<path d="M25.543 9.69284C25.3976 9.55654 25.2041 9.48047 25.0029 9.48047C24.8017 9.48047 24.6083 9.55654 24.4629 9.69284L6.48438 26.5241C6.40802 26.5957 6.34728 26.6817 6.30582 26.777C6.26436 26.8722 6.24304 26.9747 6.24316 27.0783L6.24023 42.875C6.24023 43.6873 6.56947 44.4662 7.15553 45.0405C7.74158 45.6149 8.53643 45.9375 9.36523 45.9375H18.75C19.1644 45.9375 19.5618 45.7762 19.8549 45.489C20.1479 45.2019 20.3125 44.8124 20.3125 44.4063V31.3907C20.3125 31.1876 20.3948 30.9929 20.5413 30.8493C20.6878 30.7057 20.8865 30.625 21.0938 30.625H28.9062C29.1135 30.625 29.3122 30.7057 29.4587 30.8493C29.6052 30.9929 29.6875 31.1876 29.6875 31.3907V44.4063C29.6875 44.8124 29.8521 45.2019 30.1451 45.489C30.4382 45.7762 30.8356 45.9375 31.25 45.9375H40.6309C41.4597 45.9375 42.2545 45.6149 42.8406 45.0405C43.4266 44.4662 43.7559 43.6873 43.7559 42.875V27.0783C43.756 26.9747 43.7347 26.8722 43.6932 26.777C43.6517 26.6817 43.591 26.5957 43.5146 26.5241L25.543 9.69284Z" fill="#FF77B7"/>
<path d="M47.9405 23.3659L40.6358 16.5174V6.125C40.6358 5.71889 40.4712 5.32941 40.1781 5.04224C39.8851 4.75508 39.4877 4.59375 39.0733 4.59375H34.3858C33.9714 4.59375 33.5739 4.75508 33.2809 5.04224C32.9879 5.32941 32.8233 5.71889 32.8233 6.125V9.1875L27.167 3.88746C26.6377 3.36301 25.8506 3.0625 25 3.0625C24.1524 3.0625 23.3672 3.36301 22.8379 3.88842L2.06644 23.364C1.45902 23.9382 1.38285 24.8828 1.93558 25.5049C2.07438 25.6619 2.24433 25.7896 2.43509 25.8802C2.62585 25.9708 2.83343 26.0224 3.04519 26.0319C3.25696 26.0414 3.46847 26.0086 3.66688 25.9354C3.86528 25.8622 4.04641 25.7503 4.19926 25.6063L24.4629 6.63031C24.6083 6.49401 24.8018 6.41794 25.003 6.41794C25.2042 6.41794 25.3976 6.49401 25.543 6.63031L45.8086 25.6063C46.1072 25.8869 46.507 26.04 46.9205 26.0321C47.3341 26.0242 47.7275 25.8559 48.0147 25.5642C48.6143 24.9555 48.5645 23.9507 47.9405 23.3659Z" fill="#FF77B7"/>
</svg>
