<svg width="54" height="50" viewBox="0 0 54 50" fill="none" xmlns="http://www.w3.org/2000/svg">
<path fill-rule="evenodd" clip-rule="evenodd" d="M29.1834 8.94048C28.6282 6.82134 25.3718 6.82134 24.8166 8.94048C23.9028 12.4198 19.6081 14.0699 16.3001 12.2076C14.2863 11.0724 11.9828 13.2063 13.2081 15.0687C13.6758 15.7791 13.9558 16.5819 14.0253 17.4115C14.0948 18.2413 13.9517 19.0745 13.6076 19.8435C13.2636 20.6124 12.7283 21.2952 12.0454 21.8364C11.3626 22.3775 10.5515 22.7616 9.67804 22.9577C7.38937 23.4718 7.38937 26.4869 9.67804 27.001C10.5509 27.1975 11.3622 27.5822 12.0444 28.1233C12.7265 28.6644 13.2612 29.347 13.6048 30.1154C13.9485 30.8839 14.0914 31.7166 14.0221 32.5458C13.9528 33.375 13.6731 34.1774 13.2058 34.8878C11.9803 36.7523 14.2852 38.8841 16.2965 37.7496C17.0638 37.3165 17.9307 37.0573 18.8267 36.9929C19.7229 36.9286 20.6228 37.0611 21.4533 37.3797C22.2837 37.6982 23.0212 38.1939 23.6056 38.8262C24.19 39.4584 24.6049 40.2095 24.8166 41.0182C25.3718 43.1373 28.6282 43.1373 29.1834 41.0182C29.3957 40.21 29.8111 39.4588 30.3955 38.8271C30.9799 38.1955 31.7171 37.7005 32.547 37.3823C33.3769 37.0641 34.2762 36.9317 35.1718 36.9959C36.0674 37.0601 36.934 37.319 37.7011 37.7517C39.7148 38.8865 42.0172 36.7523 40.7919 34.89C40.3242 34.1795 40.0442 33.3768 39.9747 32.5472C39.9052 31.7174 40.0483 30.8841 40.3924 30.1152C40.7364 29.3463 41.2717 28.6634 41.9546 28.1223C42.6374 27.5812 43.4485 27.197 44.322 27.001C46.6106 26.4869 46.6106 23.4718 44.322 22.9577C43.4491 22.7611 42.6378 22.3765 41.9556 21.8353C41.2735 21.2942 40.7388 20.6117 40.3952 19.8432C40.0515 19.0748 39.9086 18.2421 39.9779 17.4129C40.0472 16.5836 40.3269 15.7812 40.7942 15.0709C42.0197 13.2064 39.7148 11.0745 37.7035 12.209C36.9362 12.6421 36.0693 12.9014 35.1733 12.9657C34.2771 13.03 33.3772 12.8975 32.5467 12.579C31.7163 12.2604 30.9788 11.7648 30.3944 11.1325C29.81 10.5002 29.3951 9.7492 29.1834 8.94048ZM21.4529 8.184C22.8644 2.79971 31.1365 2.8 32.5474 8.18484C32.6307 8.5033 32.7942 8.79948 33.0243 9.04843C33.2544 9.29737 33.5447 9.4925 33.8717 9.61791C34.1986 9.74333 34.5529 9.7955 34.9057 9.77017C35.2585 9.74484 35.5999 9.64273 35.9021 9.47215C41.0123 6.58961 46.8631 12.0042 43.7507 16.7379C43.5667 17.0176 43.4564 17.3337 43.4291 17.6602C43.4018 17.9867 43.4581 18.3145 43.5934 18.617C43.7287 18.9196 43.9392 19.1883 44.2077 19.4013C44.476 19.6142 44.7948 19.7654 45.138 19.8429C50.954 21.1493 50.954 28.8094 45.138 30.1158C44.7941 30.1929 44.4742 30.3443 44.2054 30.5574C43.9365 30.7704 43.7258 31.0392 43.5903 31.342C43.4549 31.6447 43.3985 31.9727 43.4259 32.2994C43.4532 32.6261 43.5635 32.9422 43.7478 33.222C46.8609 37.9536 41.0131 43.3711 35.9007 40.4892C35.5987 40.3189 35.2572 40.2167 34.9046 40.1915C34.5521 40.1662 34.198 40.2183 33.8713 40.3436C33.5445 40.4689 33.2543 40.6637 33.0243 40.9124C32.7944 41.1608 32.631 41.456 32.5474 41.7738C31.1364 47.1589 22.8636 47.1589 21.4526 41.7738C21.3693 41.4554 21.2058 41.1592 20.9757 40.9102C20.7456 40.6613 20.4553 40.4662 20.1283 40.3407C19.8014 40.2153 19.4471 40.1632 19.0943 40.1885C18.7415 40.2138 18.4001 40.3159 18.0979 40.4865C12.9877 43.369 7.13688 37.9544 10.2493 33.2208C10.4333 32.9411 10.5436 32.6249 10.5709 32.2984C10.5982 31.972 10.5419 31.6441 10.4066 31.3416C10.2713 31.0391 10.0608 30.7704 9.79227 30.5573C9.52395 30.3445 9.20523 30.1932 8.86196 30.1158C3.04601 28.8094 3.04601 21.1493 8.86196 19.8429C9.20589 19.7657 9.52576 19.6143 9.79463 19.4013C10.0635 19.1882 10.2742 18.9194 10.4097 18.6167C10.5451 18.314 10.6015 17.9859 10.5741 17.6592C10.5468 17.3325 10.4365 17.0164 10.2522 16.7367C7.13928 12.0053 12.9862 6.58817 18.0984 9.46897C19.4054 10.2048 21.0923 9.55455 21.4529 8.184Z" fill="#212B36"/>
<path fill-rule="evenodd" clip-rule="evenodd" d="M27 20.1716C24.1324 20.1716 21.8077 22.3241 21.8077 24.9793C21.8077 27.6345 24.1324 29.787 27 29.787C29.8676 29.787 32.1923 27.6345 32.1923 24.9793C32.1923 22.3241 29.8676 20.1716 27 20.1716ZM18.3462 24.9793C18.3462 20.554 22.2206 16.9665 27 16.9665C31.7794 16.9665 35.6538 20.554 35.6538 24.9793C35.6538 29.4047 31.7794 32.9921 27 32.9921C22.2206 32.9921 18.3462 29.4047 18.3462 24.9793Z" fill="#212B36"/>
</svg>
