<svg width="60" height="52" viewBox="0 0 60 52" fill="none" xmlns="http://www.w3.org/2000/svg">
<path fill-rule="evenodd" clip-rule="evenodd" d="M46.8 29.0332L51.3 32.9549C52.4556 33.9731 52.7955 35.492 52.1628 36.8108C51.5301 38.1296 50.0479 38.9919 48.4 38.9999H40V39.7366C39.7569 44.3162 35.2849 47.8624 30 47.6666C24.715 47.8624 20.2431 44.3162 20 39.7366V38.9999H11.6C9.95207 38.9919 8.46984 38.1296 7.83718 36.8108C7.20452 35.492 7.54439 33.9731 8.69999 32.9549L13.2 29.0332V18.9149C13.2088 14.7141 15.3046 10.7201 18.9518 7.95321C22.599 5.18637 27.4444 3.91475 32.25 4.46323C40.7137 5.58748 46.9238 11.9498 46.8 19.3699V29.0332ZM30 43.3332C32.5085 43.4867 34.712 41.9017 35 39.7366V38.9999H25V39.7366C25.288 41.9017 27.4915 43.4867 30 43.3332Z" fill="#212B36"/>
</svg>
