<svg width="36" height="34" viewBox="0 0 36 34" fill="none" xmlns="http://www.w3.org/2000/svg">
<path d="M28.5001 12.7501C27.5717 12.7526 26.6668 13.0262 25.9095 13.5335C25.1522 14.0407 24.5796 14.7568 24.2701 15.5835H4.50012C4.1023 15.5835 3.72077 15.7327 3.43946 15.9984C3.15816 16.2641 3.00012 16.6244 3.00012 17.0001C3.00012 17.3758 3.15816 17.7362 3.43946 18.0019C3.72077 18.2675 4.1023 18.4168 4.50012 18.4168H24.2701C24.5453 19.1519 25.0293 19.8013 25.6691 20.294C26.3089 20.7867 27.0799 21.1036 27.8977 21.2102C28.7154 21.3168 29.5485 21.2088 30.3057 20.8982C31.0629 20.5876 31.715 20.0862 32.1906 19.449C32.6663 18.8117 32.9472 18.0632 33.0026 17.2853C33.058 16.5074 32.8858 15.7301 32.5047 15.0384C32.1237 14.3468 31.5485 13.7675 30.8422 13.3639C30.1359 12.9603 29.3256 12.7479 28.5001 12.7501ZM4.50012 9.91679H6.27012C6.58543 10.7373 7.16057 11.4461 7.91737 11.9471C8.67417 12.4481 9.57594 12.7168 10.5001 12.7168C11.4243 12.7168 12.3261 12.4481 13.0829 11.9471C13.8397 11.4461 14.4148 10.7373 14.7301 9.91679H31.5001C31.8979 9.91679 32.2795 9.76753 32.5608 9.50186C32.8421 9.23618 33.0001 8.87585 33.0001 8.50012C33.0001 8.1244 32.8421 7.76406 32.5608 7.49839C32.2795 7.23271 31.8979 7.08346 31.5001 7.08346H14.7301C14.4148 6.26299 13.8397 5.55411 13.0829 5.05315C12.3261 4.55219 11.4243 4.28345 10.5001 4.28345C9.57594 4.28345 8.67417 4.55219 7.91737 5.05315C7.16057 5.55411 6.58543 6.26299 6.27012 7.08346H4.50012C4.1023 7.08346 3.72077 7.23271 3.43946 7.49839C3.15816 7.76406 3.00012 8.1244 3.00012 8.50012C3.00012 8.87585 3.15816 9.23618 3.43946 9.50186C3.72077 9.76753 4.1023 9.91679 4.50012 9.91679ZM31.5001 24.0835H20.7301C20.4148 23.263 19.8397 22.5541 19.0829 22.0531C18.3261 21.5522 17.4243 21.2834 16.5001 21.2834C15.5759 21.2834 14.6742 21.5522 13.9174 22.0531C13.1606 22.5541 12.5854 23.263 12.2701 24.0835H4.50012C4.1023 24.0835 3.72077 24.2327 3.43946 24.4984C3.15816 24.7641 3.00012 25.1244 3.00012 25.5001C3.00012 25.8758 3.15816 26.2362 3.43946 26.5019C3.72077 26.7675 4.1023 26.9168 4.50012 26.9168H12.2701C12.5854 27.7373 13.1606 28.4461 13.9174 28.9471C14.6742 29.4481 15.5759 29.7168 16.5001 29.7168C17.4243 29.7168 18.3261 29.4481 19.0829 28.9471C19.8397 28.4461 20.4148 27.7373 20.7301 26.9168H31.5001C31.8979 26.9168 32.2795 26.7675 32.5608 26.5019C32.8421 26.2362 33.0001 25.8758 33.0001 25.5001C33.0001 25.1244 32.8421 24.7641 32.5608 24.4984C32.2795 24.2327 31.8979 24.0835 31.5001 24.0835Z" fill="#212B36"/>
</svg>
