<svg width="24" height="24" viewBox="0 0 24 24" fill="none" xmlns="http://www.w3.org/2000/svg">
<path d="M12.0001 16.0001C11.7664 16.0005 11.54 15.9191 11.3601 15.7701L5.36005 10.7701C4.9348 10.4166 4.87659 9.78531 5.23005 9.36005C5.58352 8.9348 6.2148 8.87659 6.64005 9.23005L12.0001 13.7101L17.3601 9.39005C17.5666 9.22228 17.8316 9.14379 18.0962 9.17194C18.3609 9.20009 18.6034 9.33257 18.7701 9.54005C18.9552 9.74791 19.0453 10.0235 19.0187 10.3006C18.9922 10.5777 18.8513 10.8312 18.6301 11.0001L12.6301 15.8301C12.445 15.9556 12.2232 16.0154 12.0001 16.0001Z" fill="#212B36"/>
</svg>
