<svg width="83" height="88" viewBox="0 0 83 88" fill="none" xmlns="http://www.w3.org/2000/svg">
<path d="M41.5 80.6666C34.5257 80.6666 28.7474 79.6735 24.1651 77.6874C19.5828 75.7013 17.2916 72.4166 17.2916 67.8333C17.2916 63.2499 19.5828 59.9652 24.1651 57.9791C28.7474 55.993 34.5257 54.9999 41.5 54.9999C48.4743 54.9999 54.2526 55.993 58.8349 57.9791C63.4171 59.9652 65.7083 63.2499 65.7083 67.8333C65.7083 72.4166 63.4171 75.7013 58.8349 77.6874C54.2526 79.6735 48.4743 80.6666 41.5 80.6666ZM41.5 73.3333C35.6784 73.3333 31.0097 72.6916 27.4937 71.4083C23.9777 70.1249 21.8451 68.3221 21.0958 65.9999C20.9805 66.3055 20.8941 66.611 20.8364 66.9166C20.7788 67.2221 20.75 67.5277 20.75 67.8333C20.75 70.5833 22.6376 72.7985 26.413 74.4791C30.1883 76.1596 35.2173 76.9999 41.5 76.9999C47.7826 76.9999 52.8116 76.1596 56.5869 74.4791C60.3623 72.7985 62.25 70.5833 62.25 67.8333C62.25 67.5277 62.2211 67.2221 62.1635 66.9166C62.1059 66.611 62.0194 66.3055 61.9041 65.9999C61.1548 68.3221 59.0222 70.1249 55.5062 71.4083C51.9902 72.6916 47.3215 73.3333 41.5 73.3333ZM41.5 69.6666C46.5722 69.6666 50.7222 69.1471 53.95 68.1083C57.1777 67.0694 58.7916 65.7555 58.7916 64.1666C58.7916 62.5777 57.1777 61.2638 53.95 60.2249C50.7222 59.186 46.5722 58.6666 41.5 58.6666C36.4277 58.6666 32.2777 59.186 29.05 60.2249C25.8222 61.2638 24.2083 62.5777 24.2083 64.1666C24.2083 65.7555 25.8222 67.0694 29.05 68.1083C32.2777 69.1471 36.4277 69.6666 41.5 69.6666ZM38.0416 51.3333V32.9999H31.125L44.9583 7.33325V25.6666H51.875L38.0416 51.3333Z" fill="white"/>
</svg>
