<svg width="15" height="7" viewBox="0 0 15 7" fill="none" xmlns="http://www.w3.org/2000/svg">
<path d="M7.00128 7.00128C6.76762 7.00173 6.54119 6.92036 6.36128 6.77128L0.361275 1.77128C-0.0639842 1.41781 -0.122187 0.786534 0.231275 0.361275C0.584737 -0.0639842 1.21602 -0.122187 1.64128 0.231275L7.00128 4.71128L12.3613 0.391275C12.5679 0.223505 12.8328 0.145006 13.0975 0.173159C13.3621 0.201313 13.6046 0.333795 13.7713 0.541275C13.9564 0.749134 14.0465 1.02475 14.02 1.30183C13.9934 1.57892 13.8525 1.83238 13.6313 2.00128L7.63128 6.83127C7.44619 6.95679 7.22438 7.01665 7.00128 7.00128Z" fill="#212B36"/>
</svg>
