<svg width="10" height="9" viewBox="0 0 10 9" fill="none" xmlns="http://www.w3.org/2000/svg">
<path d="M5.00017 0C5.65671 0 6.30669 0.11668 6.91326 0.342773C7.51987 0.568913 8.07105 0.900513 8.53533 1.31836C8.99962 1.73622 9.36804 2.23236 9.61932 2.77832C9.87052 3.32422 10.0002 3.90913 10.0002 4.5C10.0002 5.39002 9.70681 6.25998 9.1574 7C8.60799 7.74001 7.82688 8.31664 6.91326 8.65723C5.99969 8.99775 4.99442 9.08671 4.02459 8.91309C3.05478 8.73943 2.16422 8.31091 1.46502 7.68164C0.765756 7.0523 0.288803 6.25084 0.0958774 5.37793C-0.0970144 4.50511 0.0026911 3.60051 0.381034 2.77832C0.759391 1.95623 1.39986 1.25324 2.22185 0.758789C3.0441 0.264323 4.01127 2.65122e-07 5.00017 0ZM6.53045 1.17383C5.79972 0.901516 4.99561 0.829911 4.2199 0.96875C3.44413 1.10763 2.73141 1.45079 2.17205 1.9541C1.61264 2.45757 1.23166 3.09952 1.07732 3.79785C0.923014 4.49615 1.00213 5.22015 1.30486 5.87793C1.60758 6.5355 2.11998 7.09766 2.77752 7.49316C3.43531 7.88874 4.20905 8.09961 5.00017 8.09961C6.06089 8.09961 7.07819 7.72085 7.8283 7.0459C8.57844 6.37077 9.00017 5.45478 9.00017 4.5C9.00017 3.78806 8.76579 3.09198 8.32635 2.5C7.88682 1.90798 7.26135 1.4463 6.53045 1.17383ZM5.00017 2.25C5.13278 2.25 5.25992 2.29745 5.35369 2.38184C5.44746 2.46623 5.50017 2.58085 5.50017 2.7002V4.0498H7.00017C7.13273 4.04981 7.25993 4.09731 7.35369 4.18164C7.44746 4.26603 7.50017 4.38065 7.50017 4.5C7.50017 4.61935 7.44746 4.73397 7.35369 4.81836C7.25993 4.90269 7.13273 4.95019 7.00017 4.9502H5.00017C4.86761 4.9502 4.74042 4.90269 4.64666 4.81836C4.55289 4.73397 4.50017 4.61935 4.50017 4.5V2.7002C4.50017 2.58085 4.55289 2.46623 4.64666 2.38184C4.74043 2.29745 4.86757 2.25 5.00017 2.25Z" fill="#212B36"/>
</svg>
