<svg width="45" height="45" viewBox="0 0 45 45" fill="none" xmlns="http://www.w3.org/2000/svg">
<path d="M31.5576 33.1875C31.0882 32.6458 30.8535 32.0308 30.8535 31.3425C30.8535 30.6558 31.0882 30.0833 31.5576 29.625L36.2944 25H17.9232C17.1977 25 16.59 24.76 16.1001 24.28C15.6085 23.8017 15.3627 23.2083 15.3627 22.5C15.3627 21.7917 15.6085 21.1975 16.1001 20.7175C16.59 20.2392 17.1977 20 17.9232 20H36.2944L31.5576 15.375C31.0455 14.875 30.7895 14.2817 30.7895 13.595C30.7895 12.9067 31.0455 12.3125 31.5576 11.8125C32.027 11.3125 32.6142 11.0625 33.3192 11.0625C34.0225 11.0625 34.6088 11.2917 35.0782 11.75L44.2959 20.75C44.5519 21 44.7337 21.2708 44.8413 21.5625C44.9471 21.8542 45 22.1667 45 22.5C45 22.8333 44.9471 23.1458 44.8413 23.4375C44.7337 23.7292 44.5519 24 44.2959 24.25L35.0782 33.25C34.5235 33.7917 33.9158 34.0308 33.2552 33.9675C32.5929 33.9058 32.027 33.6458 31.5576 33.1875ZM5.12091 45C3.71266 45 2.50669 44.5108 1.50299 43.5325C0.500995 42.5525 0 41.375 0 40V5C0 3.625 0.500995 2.4475 1.50299 1.4675C2.50669 0.489166 3.71266 0 5.12091 0H20.4836C21.2091 0 21.8176 0.239166 22.3092 0.7175C22.7991 1.1975 23.0441 1.79167 23.0441 2.5C23.0441 3.20833 22.7991 3.80167 22.3092 4.28C21.8176 4.76 21.2091 5 20.4836 5H5.12091V40H20.4836C21.2091 40 21.8176 40.24 22.3092 40.72C22.7991 41.1983 23.0441 41.7917 23.0441 42.5C23.0441 43.2083 22.7991 43.8017 22.3092 44.28C21.8176 44.76 21.2091 45 20.4836 45H5.12091Z" fill="white"/>
</svg>
